<svg xmlns="http://www.w3.org/2000/svg" xmlns:xlink="http://www.w3.org/1999/xlink" id="Layer_1" width="650" height="650" x="0" y="0" baseProfile="tiny" version="1.2" viewBox="0 0 650 650" xml:space="preserve"><g><g><path fill="#585A60" d="M105.314,545.207c-49.375-0.497-48.332-1.156-48.507,1.208c-0.247,3.298,5.992,0.798,7.483,6.126 l0.008,0.053c0.15,4.736-0.222,64.859-0.246,68.596c-0.052,0.38-0.474,2.687-2.986,4.06c-0.727,0.397-1.093,1.235-0.887,2.04 c0.204,0.802,0.927,1.363,1.755,1.363h0.379c7.611,0,17.911,0.221,23.75,1.274c4.127,0.745,8.164,1.122,12.001,1.122 c0.002,0,0,0,0.002,0c29.831,0,45.557-22.804,45.671-45.327C143.835,566.399,131.854,545.478,105.314,545.207z M79.344,552.096 c52.588-3.374,53.457,36.387,45.541,55.848c-4.142,10.185-18.656,16.271-30.298,16.271c-7.201,0-12.459-2.277-14.827-6.417 L79.344,552.096z"/><path fill="#585A60" d="M175.117,587.429c0,28.372,23.221,43.215,46.156,43.215c22.243,0,45.881-15.861,45.881-45.255 C267.154,529.393,175.117,527.962,175.117,587.429z M191.598,587.251c0-20.802,5.993-37.537,26.988-37.537 c16.469,0,31.468,16.933,31.468,35.563c0.355,16.747-3.364,37.092-23.083,38.992c-20.402-0.03-32.303-12.508-35.367-36.983 L191.598,587.251z"/><path fill="#585A60" d="M366.803,544.102c-1.816,0.578-4.02,0.968-5.479,0.968c-1.506,0-55.779-0.077-59.039-0.081 c-2.249-1.181-5.748-2.614-6.292-0.139l-2.25,10.234c-0.188,0.854,0.259,1.72,1.064,2.06c0.803,0.34,1.736,0.058,2.219-0.672 c0.978-1.48,2.451-2.603,4.498-3.424c5.253-0.21,19.356-0.234,22.456-0.238l-0.323,68.892c-0.005,0.101-0.144,2.485-2.364,3.837 c-1.56,0.95-0.885,3.362,0.941,3.362c0.013,0,19.321-0.086,19.333-0.086c1.903-0.011,2.507-2.594,0.799-3.438 c-1.586-0.785-2.426-1.971-2.562-3.509c-0.075-3.205-0.553-57.805-0.651-69.042l19.761,0.469c0.178,0.009,4.347,0.244,5.824,4.399 c0.292,0.82,1.127,1.314,1.984,1.185c1.905-0.294,1.553-1.659,1.813-10.207c0.412-0.933,0.75-2.229,0.608-3.124 C368.971,544.45,367.863,543.77,366.803,544.102z"/><path fill="#585A60" d="M476.999,603.387c-4.86-0.078-14.993-0.085-17.146-0.087c-0.07-0.171-24.289-60.073-24.289-60.073 c-0.655-1.553-2.763-1.415-3.347,0.022l-31.654,77.846c-0.012,0.029-1.419,2.841-4.85,4.483c-1.735,0.833-1.132,3.446,0.781,3.45 c0.098,0,14.351,0.021,14.351,0.021c2.039,0,2.506-2.854,0.599-3.523c-1.004-0.506-1.467-1.215-1.182-2.303 c1.017-3.493,3.726-11.075,4.381-12.899l31.584,0.081l6.206,14.711c0.027,0.062,0.093,0.336-0.112,0.641 c-1.057,1.152-0.251,3.018,1.31,3.038c0.129,0.004,18.015,0.255,18.015,0.255c1.068,0,1.837-0.846,1.837-1.813 c0-0.795-0.514-1.473-1.227-1.715c-2.374-1.146-3.371-2.233-9.472-15.174c5.391,0.116,6.406-2.313,14.421-3.351 c0.943-0.122,1.63-0.951,1.577-1.899C478.727,604.149,477.95,603.401,476.999,603.387z M430.89,567.955l12.718,35.233 l-26.504,0.306L430.89,567.955z"/><path fill="#585A60" d="M589.733,609.966c-1.742,3.813-3.893,7.557-9.272,7.774c-2.802,0.109-17.722,0.7-27.096,0.632 c56.205-42.867,41.237-75.144,7.752-75.144c-7.341,0-14.721,1.771-20.243,4.852c-0.531,0.3-0.879,0.845-0.924,1.451 c-0.141,1.943,0.234,5.865,1.114,11.659c0.124,0.82,0.789,1.452,1.617,1.532c0.818,0.074,1.6-0.413,1.882-1.192 c3.229-9.007,9.722-12.216,14.72-12.216c7.151,0,14.628,6.138,15.081,17.867c1.007,26.104-30.794,50.744-37.926,57.529 c-1.206,1.041-2.155,2.141-1.152,3.405c0,2.277,2.881,2.568,3.524,0.71c6.117-0.036,39.321-0.229,45.467-0.161 c4.454,0.323,6.657-2.267,6.757-5.162l2.137-12.477C593.527,608.942,590.609,608.051,589.733,609.966z"/></g><path fill="#EA473B" d="M561.336,128.825c-1.859-88.056-1.976-69.022-0.163-96.466c0.108-1.627-1.12-3.033-2.748-3.145 c-131.117-8.968-136.089-10.002-146.248-10.002c-178.873-0.015-84.964-2.937-323.722,11.147c-1.622,0.097-2.862,1.483-2.777,3.104 c15.387,295.221,14.825,247.061,6.965,443.817c-0.056,1.416,0.896,2.668,2.274,2.992c17.869,4.227,14.702,2.563,56.385,2.592 c0.068,0.021,78.116-8.501,78.187-8.508c0.368,0.061,107.928,17.714,108.302,17.714c0.081,0,0.162-0.005,0.245-0.013 c126.056-10.562,89.924-8.01,171.248-12.518l47.753,9.661c1.857,0.372,3.562-1.064,3.54-2.933 C559.543,390.13,561.336,128.825,561.336,128.825z M367.497,121.816c0.355-0.087,0.864-0.21,1.497-0.378l33.99-7.66 c17.409-4.363,19.98-5.425,34.881-12.43h0.001c6.88,2.387,25.738,12.823,30.521,18.815c3.157,3.966,2.95,4.848,1.959,9.097 c-0.193,0.815-0.411,1.754-0.64,2.862c-0.016,0.073-0.028,0.147-0.04,0.222l-7.474,58.488c-7.396,0.273-8.013-0.293-10.058-2.177 c-0.844-0.779-1.896-1.748-3.748-2.989c-11.245-7.549-48.052-34.782-59.673-44.155l-22.846-18.356l0.184-0.178 c0.246-0.247,0.466-0.578,0.613-0.895C366.78,121.993,367.231,121.882,367.497,121.816z M420.464,416.306 c-0.669-0.667-285.611-302.743-285.82-303.16l24.895-19.097L507.418,324.4c-2.876,8.237-4.022,17.691-5.75,25.543 c-6.113,27.728-13.972,39.858-26.264,66.204C457.815,416.846,421.676,416.711,420.464,416.306z M161.258,334.579 c3.203-7.697,7.606-20.08,11.308-26.353c18.196,11.37,89.276,82.79,95.458,92.432c-3.425,1.271-18.131,3.457-42.565,13.218 c-15.483,6.174-30.101,12.034-44.222,7.242c-1.408-0.474-5.162-3.659-10.729-8.465c-10.167-8.777-19.373-15.098-24.727-18.26 C136.65,389.004,138.073,390.14,161.258,334.579z"/><g><path fill="#D82B27" d="M122.037,335.208c-2.231-115.073,0.26-52.39-12.962-306.065l-20.62,1.216 c-1.622,0.097-2.862,1.483-2.777,3.104l10.979,210.633c2.181,112.513,2.776,63.207-4.014,233.184 c-0.056,1.416,0.896,2.668,2.274,2.992c10.083,2.387,14.275,2.92,21.37,2.92C116.063,482.435,115.819,490.824,122.037,335.208z"/><path fill="#D82B27" d="M282.823,407.16c0,0,12.058-4.151,2.146-15.03c-40.459-45.125-65.104-61.473-88.531-87.173 c-9.791-10.598-23.872,3.267-23.872,3.267c91.554,81.383,73.213,69.602,89.351,85.185c2.143,2.067,3.833,3.703,6.106,7.247 c-0.423,0.158-2.293,0.629-4.883,1.284c-38.091,9.61-43.807,16.135-60.815,19.78c15.873,12.941,43.862-2.847,63.816-9.719 C270.915,410.363,277.235,408.619,282.823,407.16L282.823,407.16z"/><path fill="#D82B27" d="M524.739,300.441c-0.003-0.002-332.584-212.098-332.584-212.098c-11.143-7.105-23.159-3.686-32.617,5.706 L507.419,324.4c-2.874,8.237-4.023,17.691-5.751,25.543c-6.113,27.728-13.971,39.858-26.261,66.204 c0,0,31.505,6.055,41.111-15.266c22.539-47.969,17.335-57.016,22.705-72.162C538.587,320.177,539.775,310.031,524.739,300.441z"/><path fill="#D82B27" d="M469.706,132.122c-0.016,0.073-0.028,0.147-0.04,0.222l-7.474,58.488c0,0,29.571,18.265,33.289-11.766 c0-0.01,0.003-0.02,0.004-0.029l6.117-49.444c0.011-0.075,0.022-0.152,0.038-0.228c0.234-1.132,0.459-2.092,0.654-2.924 c1.016-4.343,1.228-5.245-2.004-9.3c-3.394-4.255-18.607-15.489-29.944-22.773c-10.696-7.173-23.401,1.453-23.401,1.453 c-3.175,2.43-6.009,4.553-9.079,5.528c7.769,4.202,27.457,14.975,30.521,18.815c3.157,3.966,2.95,4.848,1.959,9.097 C470.152,130.077,469.935,131.014,469.706,132.122z"/></g></g></svg>